solid OpenSCAD_Model
  facet normal 0 0 -1
    outer loop
      vertex -10.01 -10 0
      vertex -10.01 10 0
      vertex -10 -10.01 0
    endloop
  endfacet
  facet normal 0 0 -1
    outer loop
      vertex -10 -10.01 0
      vertex -10.01 10 0
      vertex -10 10.01 0
    endloop
  endfacet
  facet normal 0 0 -1
    outer loop
      vertex 0.005 6.59045 0
      vertex -10 10.01 0
      vertex 10 10.01 0
    endloop
  endfacet
  facet normal 0 0 -1
    outer loop
      vertex 5.71 -3.2909 0
      vertex 10.01 10 0
      vertex 10.01 -10 0
    endloop
  endfacet
  facet normal 0 0 -1
    outer loop
      vertex -10 -10.01 0
      vertex 10.01 -10 0
      vertex 10 -10.01 0
    endloop
  endfacet
  facet normal 0 0 -1
    outer loop
      vertex -10 -10.01 0
      vertex -10 10.01 0
      vertex -5.71 3.2909 0
    endloop
  endfacet
  facet normal 0 0 -1
    outer loop
      vertex -10 -10.01 0
      vertex -5.71 3.2909 0
      vertex -5.71 -3.2909 0
    endloop
  endfacet
  facet normal 0 0 -1
    outer loop
      vertex -10 -10.01 0
      vertex -5.71 -3.2909 0
      vertex -5.705 -3.29956 0
    endloop
  endfacet
  facet normal 0 0 -1
    outer loop
      vertex 0.005 6.59045 0
      vertex 10 10.01 0
      vertex 10.01 10 0
    endloop
  endfacet
  facet normal 0 0 -1
    outer loop
      vertex -10 -10.01 0
      vertex -0.005 -6.59045 0
      vertex 10.01 -10 0
    endloop
  endfacet
  facet normal 0 0 -1
    outer loop
      vertex 0.005 6.59045 0
      vertex 10.01 10 0
      vertex 5.705 3.29956 0
    endloop
  endfacet
  facet normal 0 0 -1
    outer loop
      vertex -0.005 -6.59045 0
      vertex 0.005 -6.59045 0
      vertex 10.01 -10 0
    endloop
  endfacet
  facet normal 0 0 -1
    outer loop
      vertex 0.005 -6.59045 0
      vertex 5.705 -3.29956 0
      vertex 10.01 -10 0
    endloop
  endfacet
  facet normal 0 0 -1
    outer loop
      vertex 5.705 -3.29956 0
      vertex 5.71 -3.2909 0
      vertex 10.01 -10 0
    endloop
  endfacet
  facet normal 0 0 -1
    outer loop
      vertex 5.705 3.29956 0
      vertex 10.01 10 0
      vertex 5.71 3.2909 0
    endloop
  endfacet
  facet normal 0 0 -1
    outer loop
      vertex 5.71 3.2909 0
      vertex 10.01 10 0
      vertex 5.71 -3.2909 0
    endloop
  endfacet
  facet normal 0 0 -1
    outer loop
      vertex -0.005 6.59045 0
      vertex -10 10.01 0
      vertex 0.005 6.59045 0
    endloop
  endfacet
  facet normal 0 0 -1
    outer loop
      vertex -5.705 3.29956 0
      vertex -10 10.01 0
      vertex -0.005 6.59045 0
    endloop
  endfacet
  facet normal 0 0 -1
    outer loop
      vertex -5.71 3.2909 0
      vertex -10 10.01 0
      vertex -5.705 3.29956 0
    endloop
  endfacet
  facet normal 0 0 -1
    outer loop
      vertex -0.005 -6.59045 0
      vertex -10 -10.01 0
      vertex -5.705 -3.29956 0
    endloop
  endfacet
  facet normal -1 0 0
    outer loop
      vertex -10.01 -10 0
      vertex -10.01 -10 20
      vertex -10.01 10 0
    endloop
  endfacet
  facet normal -1 0 0
    outer loop
      vertex -10.01 10 0
      vertex -10.01 -10 20
      vertex -10.01 10 20
    endloop
  endfacet
  facet normal -0.707107 -0.707107 0
    outer loop
      vertex -10.01 -10 20
      vertex -10.01 -10 0
      vertex -10 -10.01 0
    endloop
  endfacet
  facet normal -0.707107 -0.707107 0
    outer loop
      vertex -10 -10.01 20
      vertex -10.01 -10 20
      vertex -10 -10.01 0
    endloop
  endfacet
  facet normal 0 -1 0
    outer loop
      vertex -10 -10.01 20
      vertex -10 -10.01 0
      vertex 10 -10.01 0
    endloop
  endfacet
  facet normal 0 -1 0
    outer loop
      vertex 10 -10.01 20
      vertex -10 -10.01 20
      vertex 10 -10.01 0
    endloop
  endfacet
  facet normal 0.707107 -0.707107 0
    outer loop
      vertex 10 -10.01 20
      vertex 10 -10.01 0
      vertex 10.01 -10 0
    endloop
  endfacet
  facet normal 0.707107 -0.707107 0
    outer loop
      vertex 10.01 -10 20
      vertex 10 -10.01 20
      vertex 10.01 -10 0
    endloop
  endfacet
  facet normal 1 0 0
    outer loop
      vertex 10.01 -10 20
      vertex 10.01 -10 0
      vertex 10.01 10 0
    endloop
  endfacet
  facet normal 1 0 0
    outer loop
      vertex 10.01 10 20
      vertex 10.01 -10 20
      vertex 10.01 10 0
    endloop
  endfacet
  facet normal 0.707107 0.707107 0
    outer loop
      vertex 10 10.01 0
      vertex 10 10.01 20
      vertex 10.01 10 0
    endloop
  endfacet
  facet normal 0.707107 0.707107 0
    outer loop
      vertex 10.01 10 0
      vertex 10 10.01 20
      vertex 10.01 10 20
    endloop
  endfacet
  facet normal 0 1 0
    outer loop
      vertex -10 10.01 0
      vertex -10 10.01 20
      vertex 10 10.01 0
    endloop
  endfacet
  facet normal 0 1 0
    outer loop
      vertex 10 10.01 0
      vertex -10 10.01 20
      vertex 10 10.01 20
    endloop
  endfacet
  facet normal -0.707107 0.707107 0
    outer loop
      vertex -10.01 10 0
      vertex -10.01 10 20
      vertex -10 10.01 0
    endloop
  endfacet
  facet normal -0.707107 0.707107 0
    outer loop
      vertex -10 10.01 0
      vertex -10.01 10 20
      vertex -10 10.01 20
    endloop
  endfacet
  facet normal 0.866019 -0.500011 0
    outer loop
      vertex -5.705 3.29956 0
      vertex -5.705 3.29956 20
      vertex -5.71 3.2909 20
    endloop
  endfacet
  facet normal 0.866019 -0.500011 0
    outer loop
      vertex -5.71 3.2909 0
      vertex -5.705 3.29956 0
      vertex -5.71 3.2909 20
    endloop
  endfacet
  facet normal 1 0 0
    outer loop
      vertex -5.71 3.2909 0
      vertex -5.71 3.2909 20
      vertex -5.71 -3.2909 20
    endloop
  endfacet
  facet normal 1 0 0
    outer loop
      vertex -5.71 -3.2909 0
      vertex -5.71 3.2909 0
      vertex -5.71 -3.2909 20
    endloop
  endfacet
  facet normal 0.5 -0.866025 0
    outer loop
      vertex -0.005 6.59045 0
      vertex -0.005 6.59045 20
      vertex -5.705 3.29956 20
    endloop
  endfacet
  facet normal 0.5 -0.866025 0
    outer loop
      vertex -5.705 3.29956 0
      vertex -0.005 6.59045 0
      vertex -5.705 3.29956 20
    endloop
  endfacet
  facet normal 0 -1 0
    outer loop
      vertex 0.005 6.59045 0
      vertex 0.005 6.59045 20
      vertex -0.005 6.59045 20
    endloop
  endfacet
  facet normal 0 -1 0
    outer loop
      vertex -0.005 6.59045 0
      vertex 0.005 6.59045 0
      vertex -0.005 6.59045 20
    endloop
  endfacet
  facet normal -0.5 -0.866025 0
    outer loop
      vertex 5.705 3.29956 0
      vertex 5.705 3.29956 20
      vertex 0.005 6.59045 20
    endloop
  endfacet
  facet normal -0.5 -0.866025 0
    outer loop
      vertex 0.005 6.59045 0
      vertex 5.705 3.29956 0
      vertex 0.005 6.59045 20
    endloop
  endfacet
  facet normal -0.866044 -0.499968 0
    outer loop
      vertex 5.71 3.2909 20
      vertex 5.705 3.29956 20
      vertex 5.71 3.2909 0
    endloop
  endfacet
  facet normal -0.866044 -0.499968 0
    outer loop
      vertex 5.71 3.2909 0
      vertex 5.705 3.29956 20
      vertex 5.705 3.29956 0
    endloop
  endfacet
  facet normal -1 0 0
    outer loop
      vertex 5.71 3.2909 20
      vertex 5.71 3.2909 0
      vertex 5.71 -3.2909 20
    endloop
  endfacet
  facet normal -1 0 0
    outer loop
      vertex 5.71 -3.2909 20
      vertex 5.71 3.2909 0
      vertex 5.71 -3.2909 0
    endloop
  endfacet
  facet normal -0.866019 0.500011 0
    outer loop
      vertex 5.71 -3.2909 20
      vertex 5.71 -3.2909 0
      vertex 5.705 -3.29956 20
    endloop
  endfacet
  facet normal -0.866019 0.500011 0
    outer loop
      vertex 5.705 -3.29956 20
      vertex 5.71 -3.2909 0
      vertex 5.705 -3.29956 0
    endloop
  endfacet
  facet normal -0.5 0.866025 0
    outer loop
      vertex 5.705 -3.29956 20
      vertex 5.705 -3.29956 0
      vertex 0.005 -6.59045 20
    endloop
  endfacet
  facet normal -0.5 0.866025 0
    outer loop
      vertex 0.005 -6.59045 20
      vertex 5.705 -3.29956 0
      vertex 0.005 -6.59045 0
    endloop
  endfacet
  facet normal 0 1 0
    outer loop
      vertex 0.005 -6.59045 20
      vertex 0.005 -6.59045 0
      vertex -0.005 -6.59045 20
    endloop
  endfacet
  facet normal 0 1 0
    outer loop
      vertex -0.005 -6.59045 20
      vertex 0.005 -6.59045 0
      vertex -0.005 -6.59045 0
    endloop
  endfacet
  facet normal 0.5 0.866025 0
    outer loop
      vertex -0.005 -6.59045 20
      vertex -0.005 -6.59045 0
      vertex -5.705 -3.29956 20
    endloop
  endfacet
  facet normal 0.5 0.866025 0
    outer loop
      vertex -5.705 -3.29956 20
      vertex -0.005 -6.59045 0
      vertex -5.705 -3.29956 0
    endloop
  endfacet
  facet normal 0.866044 0.499968 0
    outer loop
      vertex -5.71 -3.2909 20
      vertex -5.705 -3.29956 20
      vertex -5.705 -3.29956 0
    endloop
  endfacet
  facet normal 0.866044 0.499968 0
    outer loop
      vertex -5.71 -3.2909 0
      vertex -5.71 -3.2909 20
      vertex -5.705 -3.29956 0
    endloop
  endfacet
  facet normal 0 0 1
    outer loop
      vertex -10.01 10 20
      vertex -10.01 -10 20
      vertex -10 -10.01 20
    endloop
  endfacet
  facet normal 0 0 1
    outer loop
      vertex 5.71 3.2909 20
      vertex 5.71 -3.2909 20
      vertex 10.01 -10 20
    endloop
  endfacet
  facet normal 0 0 1
    outer loop
      vertex -5.71 -3.2909 20
      vertex -10.01 10 20
      vertex -10 -10.01 20
    endloop
  endfacet
  facet normal 0 0 1
    outer loop
      vertex 10 10.01 20
      vertex -10.01 10 20
      vertex 10.01 10 20
    endloop
  endfacet
  facet normal 0 0 1
    outer loop
      vertex -10 10.01 20
      vertex -10.01 10 20
      vertex 10 10.01 20
    endloop
  endfacet
  facet normal 0 0 1
    outer loop
      vertex -5.705 -3.29956 20
      vertex -5.71 -3.2909 20
      vertex -10 -10.01 20
    endloop
  endfacet
  facet normal 0 0 1
    outer loop
      vertex -5.71 3.2909 20
      vertex -10.01 10 20
      vertex -5.71 -3.2909 20
    endloop
  endfacet
  facet normal 0 0 1
    outer loop
      vertex -5.705 3.29956 20
      vertex -10.01 10 20
      vertex -5.71 3.2909 20
    endloop
  endfacet
  facet normal 0 0 1
    outer loop
      vertex 10.01 10 20
      vertex -10.01 10 20
      vertex -0.005 6.59045 20
    endloop
  endfacet
  facet normal 0 0 1
    outer loop
      vertex 10.01 10 20
      vertex -0.005 6.59045 20
      vertex 0.005 6.59045 20
    endloop
  endfacet
  facet normal 0 0 1
    outer loop
      vertex 5.705 -3.29956 20
      vertex 0.005 -6.59045 20
      vertex 10 -10.01 20
    endloop
  endfacet
  facet normal 0 0 1
    outer loop
      vertex 10.01 10 20
      vertex 0.005 6.59045 20
      vertex 5.705 3.29956 20
    endloop
  endfacet
  facet normal 0 0 1
    outer loop
      vertex 10.01 10 20
      vertex 5.71 3.2909 20
      vertex 10.01 -10 20
    endloop
  endfacet
  facet normal 0 0 1
    outer loop
      vertex 10.01 10 20
      vertex 5.705 3.29956 20
      vertex 5.71 3.2909 20
    endloop
  endfacet
  facet normal 0 0 1
    outer loop
      vertex 5.71 -3.2909 20
      vertex 5.705 -3.29956 20
      vertex 10.01 -10 20
    endloop
  endfacet
  facet normal 0 0 1
    outer loop
      vertex 10 -10.01 20
      vertex 0.005 -6.59045 20
      vertex -10 -10.01 20
    endloop
  endfacet
  facet normal 0 0 1
    outer loop
      vertex 0.005 -6.59045 20
      vertex -0.005 -6.59045 20
      vertex -10 -10.01 20
    endloop
  endfacet
  facet normal 0 0 1
    outer loop
      vertex -0.005 -6.59045 20
      vertex -5.705 -3.29956 20
      vertex -10 -10.01 20
    endloop
  endfacet
  facet normal 0 0 1
    outer loop
      vertex 5.705 -3.29956 20
      vertex 10 -10.01 20
      vertex 10.01 -10 20
    endloop
  endfacet
  facet normal 0 0 1
    outer loop
      vertex -5.705 3.29956 20
      vertex -0.005 6.59045 20
      vertex -10.01 10 20
    endloop
  endfacet
endsolid OpenSCAD_Model
